<svg xmlns="http://www.w3.org/2000/svg" xmlns:xlink="http://www.w3.org/1999/xlink" width="100" zoomAndPan="magnify" viewBox="0 0 75 74.999997" height="100" preserveAspectRatio="xMidYMid meet" version="1.0"><defs><clipPath id="277787fcae"><path d="M 3.339844 3.339844 L 71.589844 3.339844 L 71.589844 71.589844 L 3.339844 71.589844 Z M 3.339844 3.339844 " clip-rule="nonzero"/></clipPath><clipPath id="7a6594648c"><path d="M 3.339844 3.339844 L 71.589844 3.339844 L 71.589844 71.589844 L 3.339844 71.589844 Z M 3.339844 3.339844 " clip-rule="nonzero"/></clipPath></defs><g clip-path="url(#277787fcae)"><path fill="#235b9e" d="M 71.054688 54.230469 C 71.054688 63.488281 63.492188 71.054688 54.226562 71.054688 L 20.691406 71.054688 C 11.433594 71.054688 3.871094 63.488281 3.871094 54.230469 L 3.871094 20.695312 C 3.871094 11.433594 11.433594 3.871094 20.691406 3.871094 L 54.226562 3.871094 C 63.492188 3.871094 71.054688 11.433594 71.054688 20.695312 Z M 71.054688 54.230469 " fill-opacity="1" fill-rule="nonzero"/></g><path fill="#ffffff" d="M 32.132812 58.257812 L 40.128906 58.257812 L 40.128906 37.464844 L 46.480469 37.464844 L 47.246094 28.933594 L 40.664062 28.933594 L 40.664062 25.726562 C 40.664062 24.09375 41.667969 23.601562 42.433594 23.601562 L 47.0625 23.601562 L 47.0625 16.53125 L 40.503906 16.503906 C 33.316406 16.503906 31.597656 21.859375 31.597656 25.289062 L 31.597656 28.933594 L 27.867188 28.933594 L 27.867188 37.464844 L 32.132812 37.464844 Z M 32.132812 58.257812 " fill-opacity="1" fill-rule="nonzero"/><path stroke-linecap="round" transform="matrix(0.533203, 0, 0, 0.533203, 3.338485, 3.338482)" fill="none" stroke-linejoin="round" d="M 68.998884 94.002552 L 68.998884 102.998889 L 54.002548 102.998889 L 54.002548 64.002552 L 46.002548 64.002552 L 46.002548 48.002552 L 52.998885 48.002552 L 52.998885 41.167388 C 52.998885 34.735153 56.222328 24.691197 69.702181 24.691197 L 82.002547 24.742479 L 82.002547 38.002553 L 73.321229 38.002553 C 71.885331 38.002553 70.002547 38.925629 70.002547 41.9879 L 70.002547 48.002552 L 82.34687 48.002552 L 80.910972 64.002552 L 68.998884 64.002552 L 68.998884 76.998889 " stroke="#333333" stroke-width="2" stroke-opacity="1" stroke-miterlimit="10"/><g clip-path="url(#7a6594648c)"><path stroke-linecap="round" transform="matrix(0.533203, 0, 0, 0.533203, 3.338485, 3.338482)" fill="none" stroke-linejoin="round" d="M 95.438444 0.99889 L 32.544672 0.99889 C 15.182035 0.99889 0.998885 15.18204 0.998885 32.552003 L 0.998885 95.445775 C 0.998885 112.808412 15.182035 126.998888 32.544672 126.998888 L 95.438444 126.998888 C 112.808408 126.998888 126.998884 112.808412 126.998884 95.445775 L 126.998884 32.552003 C 126.998884 15.18204 112.808408 0.99889 95.438444 0.99889 Z M 95.438444 0.99889 " stroke="#333333" stroke-width="2" stroke-opacity="1" stroke-miterlimit="10"/></g><path stroke-linecap="round" transform="matrix(0.533203, 0, 0, 0.533203, 3.338485, 3.338482)" fill="none" stroke-linejoin="round" d="M 92.998884 6.99889 L 34.771779 6.99889 C 19.61427 6.99889 6.998885 19.614274 6.998885 34.771783 L 6.998885 93.233321 C 6.998885 108.383504 19.61427 120.998888 34.771779 120.998888 L 93.233316 120.998888 C 108.383499 120.998888 120.998884 108.383504 120.998884 93.225995 L 120.998884 64.998889 " stroke="#333333" stroke-width="2" stroke-opacity="1" stroke-miterlimit="10"/><path stroke-linecap="round" transform="matrix(0.533203, 0, 0, 0.533203, 3.338485, 3.338482)" fill="none" stroke-linejoin="round" d="M 92.998884 6.99889 C 100.573976 6.99889 107.665551 10.405483 112.632583 15.36519 " stroke="#333333" stroke-width="2" stroke-opacity="1" stroke-miterlimit="10"/><path stroke-linecap="round" transform="matrix(0.533203, 0, 0, 0.533203, 3.338485, 3.338482)" fill="none" stroke-linejoin="round" d="M 120.998884 58.002552 L 120.998884 42.998889 " stroke="#333333" stroke-width="2" stroke-opacity="1" stroke-miterlimit="10"/></svg>