<svg xmlns="http://www.w3.org/2000/svg" xmlns:xlink="http://www.w3.org/1999/xlink" width="100" zoomAndPan="magnify" viewBox="0 0 75 74.999997" height="100" preserveAspectRatio="xMidYMid meet" version="1.0"><defs><clipPath id="54860cb182"><path d="M 3.339844 3.339844 L 71.589844 3.339844 L 71.589844 71.589844 L 3.339844 71.589844 Z M 3.339844 3.339844 " clip-rule="nonzero"/></clipPath><clipPath id="013b788230"><path d="M 3.339844 3.339844 L 71.589844 3.339844 L 71.589844 71.589844 L 3.339844 71.589844 Z M 3.339844 3.339844 " clip-rule="nonzero"/></clipPath></defs><path fill="#8585cc" d="M 56.320312 70.691406 C 64.257812 70.691406 70.691406 64.257812 70.691406 56.320312 L 70.691406 18.605469 C 70.691406 10.671875 64.257812 4.238281 56.320312 4.238281 L 18.605469 4.238281 C 10.671875 4.238281 4.238281 10.671875 4.238281 18.605469 L 4.238281 56.320312 C 4.238281 64.257812 10.671875 70.691406 18.605469 70.691406 Z M 56.320312 70.691406 " fill-opacity="1" fill-rule="nonzero"/><path fill="#8d8dd8" d="M 7.648438 9.320312 C 5.523438 11.828125 4.238281 15.0625 4.238281 18.605469 L 4.238281 56.320312 C 4.238281 64.257812 10.671875 70.691406 18.605469 70.691406 L 56.320312 70.691406 C 64.257812 70.691406 70.691406 64.257812 70.691406 56.320312 L 70.691406 18.605469 C 70.691406 17.703125 70.597656 16.824219 70.4375 15.964844 C 59.257812 9.121094 46.140625 5.132812 32.074219 5.132812 C 23.507812 5.132812 15.292969 6.628906 7.648438 9.320312 Z M 7.648438 9.320312 " fill-opacity="1" fill-rule="nonzero"/><path fill="#bd82f4" d="M 4.246094 18.433594 C 4.242188 18.492188 4.238281 18.546875 4.238281 18.605469 L 4.238281 56.320312 C 4.238281 64.257812 10.671875 70.691406 18.605469 70.691406 L 56.320312 70.691406 C 64.257812 70.691406 70.691406 64.257812 70.691406 56.320312 L 70.691406 24.707031 C 59.804688 16.917969 46.480469 12.320312 32.074219 12.320312 C 22.132812 12.320312 12.714844 14.519531 4.246094 18.433594 Z M 4.246094 18.433594 " fill-opacity="1" fill-rule="nonzero"/><path fill="#ed73f4" d="M 4.238281 26.472656 L 4.238281 56.320312 C 4.238281 64.257812 10.671875 70.691406 18.605469 70.691406 L 56.320312 70.691406 C 64.257812 70.691406 70.691406 64.257812 70.691406 56.320312 L 70.691406 33.835938 C 60.316406 24.914062 46.832031 19.503906 32.074219 19.503906 C 22.007812 19.503906 12.542969 22.042969 4.238281 26.472656 Z M 4.238281 26.472656 " fill-opacity="1" fill-rule="nonzero"/><path fill="#f97dcd" d="M 32.074219 26.6875 C 21.828125 26.6875 12.292969 29.675781 4.238281 34.785156 L 4.238281 56.320312 C 4.238281 64.257812 10.671875 70.691406 18.605469 70.691406 L 56.320312 70.691406 C 64.257812 70.691406 70.691406 64.257812 70.691406 56.320312 L 70.691406 43.867188 C 61.160156 33.328125 47.402344 26.6875 32.074219 26.6875 Z M 32.074219 26.6875 " fill-opacity="1" fill-rule="nonzero"/><path fill="#fc9c95" d="M 32.074219 33.871094 C 21.546875 33.871094 11.894531 37.523438 4.238281 43.589844 L 4.238281 56.320312 C 4.238281 64.257812 10.671875 70.691406 18.605469 70.691406 L 56.320312 70.691406 C 64.257812 70.691406 70.691406 64.257812 70.691406 56.320312 L 70.691406 55.894531 C 62.863281 42.71875 48.511719 33.871094 32.074219 33.871094 Z M 32.074219 33.871094 " fill-opacity="1" fill-rule="nonzero"/><path fill="#ffac99" d="M 32.074219 41.054688 C 21.039062 41.054688 11.132812 45.816406 4.238281 53.375 L 4.238281 56.320312 C 4.238281 64.257812 10.671875 70.691406 18.605469 70.691406 L 56.320312 70.691406 C 60.75 70.691406 64.707031 68.683594 67.34375 65.535156 C 61.976562 51.246094 48.238281 41.054688 32.074219 41.054688 Z M 32.074219 41.054688 " fill-opacity="1" fill-rule="nonzero"/><path fill="#ffc49c" d="M 56.320312 70.691406 C 58.039062 70.691406 59.679688 70.371094 61.210938 69.820312 C 57.375 57.335938 45.8125 48.238281 32.074219 48.238281 C 20.964844 48.238281 11.253906 54.183594 5.914062 63.054688 C 8.328125 67.597656 13.105469 70.691406 18.605469 70.691406 Z M 56.320312 70.691406 " fill-opacity="1" fill-rule="nonzero"/><path fill="#ffde8d" d="M 32.074219 55.425781 C 22.847656 55.425781 14.882812 60.785156 11.089844 68.550781 C 13.28125 69.898438 15.847656 70.691406 18.605469 70.691406 L 53.957031 70.691406 C 50.664062 61.785156 42.125 55.425781 32.074219 55.425781 Z M 32.074219 55.425781 " fill-opacity="1" fill-rule="nonzero"/><path fill="#fff69f" d="M 32.074219 62.609375 C 26.113281 62.609375 20.953125 65.863281 18.152344 70.667969 C 18.304688 70.671875 18.453125 70.691406 18.605469 70.691406 L 46.011719 70.691406 C 43.214844 65.875 38.046875 62.609375 32.074219 62.609375 Z M 32.074219 62.609375 " fill-opacity="1" fill-rule="nonzero"/><g clip-path="url(#54860cb182)"><path fill="#8b75a1" d="M 57.21875 5.132812 C 64.152344 5.132812 69.792969 10.773438 69.792969 17.707031 L 69.792969 57.21875 C 69.792969 64.152344 64.152344 69.792969 57.21875 69.792969 L 17.707031 69.792969 C 10.773438 69.792969 5.132812 64.152344 5.132812 57.21875 L 5.132812 17.707031 C 5.132812 10.773438 10.773438 5.132812 17.707031 5.132812 L 57.21875 5.132812 M 57.21875 3.339844 L 17.707031 3.339844 C 9.773438 3.339844 3.339844 9.773438 3.339844 17.707031 L 3.339844 57.21875 C 3.339844 65.15625 9.773438 71.589844 17.707031 71.589844 L 57.21875 71.589844 C 65.15625 71.589844 71.589844 65.15625 71.589844 57.21875 L 71.589844 17.707031 C 71.589844 9.773438 65.15625 3.339844 57.21875 3.339844 Z M 57.21875 3.339844 " fill-opacity="1" fill-rule="nonzero"/></g><path fill="#ffffff" d="M 50.933594 21.300781 C 50.578125 21.300781 50.234375 21.367188 49.902344 21.503906 C 49.574219 21.640625 49.28125 21.835938 49.027344 22.089844 C 48.777344 22.339844 48.582031 22.632812 48.445312 22.960938 C 48.308594 23.292969 48.238281 23.636719 48.238281 23.992188 C 48.238281 24.351562 48.308594 24.695312 48.445312 25.023438 C 48.582031 25.355469 48.777344 25.644531 49.027344 25.898438 C 49.28125 26.152344 49.574219 26.34375 49.902344 26.480469 C 50.234375 26.617188 50.578125 26.6875 50.933594 26.6875 C 51.292969 26.6875 51.636719 26.617188 51.964844 26.480469 C 52.292969 26.34375 52.585938 26.152344 52.839844 25.898438 C 53.089844 25.644531 53.285156 25.355469 53.421875 25.023438 C 53.558594 24.695312 53.628906 24.351562 53.628906 23.992188 C 53.628906 23.636719 53.558594 23.292969 53.421875 22.960938 C 53.285156 22.632812 53.089844 22.339844 52.839844 22.089844 C 52.585938 21.835938 52.292969 21.640625 51.964844 21.503906 C 51.636719 21.367188 51.292969 21.300781 50.933594 21.300781 Z M 50.933594 21.300781 " fill-opacity="1" fill-rule="nonzero"/><g clip-path="url(#013b788230)"><path stroke-linecap="butt" transform="matrix(1.796053, 0, 0, 1.796053, 1.542432, 1.542428)" fill="none" stroke-linejoin="miter" d="M 20.000757 14.000187 C 19.607099 14.000187 19.215615 14.039336 18.828482 14.115458 C 18.443523 14.191579 18.067264 14.30685 17.704054 14.456918 C 17.340844 14.606987 16.995034 14.791854 16.666623 15.01152 C 16.338211 15.229011 16.035899 15.479125 15.757511 15.757514 C 15.479123 16.035902 15.229008 16.338214 15.011517 16.666625 C 14.791851 16.995037 14.606984 17.340847 14.456916 17.704057 C 14.306847 18.067266 14.191577 18.443526 14.115455 18.828484 C 14.039333 19.215618 14.000185 19.607102 14.000185 20.00076 C 14.000185 20.394419 14.039333 20.783727 14.115455 21.170861 C 14.191577 21.557995 14.306847 21.932079 14.456916 22.295289 C 14.606984 22.660673 14.791851 23.006484 15.011517 23.33272 C 15.229008 23.661131 15.479123 23.963443 15.757511 24.241832 C 16.035899 24.52022 16.338211 24.770334 16.666623 24.987825 C 16.995034 25.207491 17.340844 25.392358 17.704054 25.542427 C 18.067264 25.694671 18.443523 25.807766 18.828482 25.883888 C 19.215615 25.962184 19.607099 25.999158 20.000757 25.999158 C 20.394416 25.999158 20.783724 25.962184 21.170858 25.883888 C 21.557992 25.807766 21.932076 25.694671 22.295286 25.542427 C 22.660671 25.392358 23.006481 25.207491 23.332717 24.987825 C 23.661128 24.770334 23.963441 24.52022 24.241829 24.241832 C 24.520217 23.963443 24.770332 23.661131 24.987823 23.33272 C 25.207488 23.006484 25.392356 22.660673 25.542424 22.295289 C 25.694668 21.932079 25.807763 21.557995 25.883885 21.170861 C 25.962182 20.783727 25.999155 20.394419 25.999155 20.00076 C 25.999155 19.607102 25.962182 19.215618 25.883885 18.828484 C 25.807763 18.443526 25.694668 18.067266 25.542424 17.704057 C 25.392356 17.340847 25.207488 16.995037 24.987823 16.666625 C 24.770332 16.338214 24.520217 16.035902 24.241829 15.757514 C 23.963441 15.479125 23.661128 15.229011 23.332717 15.01152 C 23.006481 14.791854 22.660671 14.606987 22.295286 14.456918 C 21.932076 14.30685 21.557992 14.191579 21.170858 14.115458 C 20.783724 14.039336 20.394416 14.000187 20.000757 14.000187 Z M 20.000757 14.000187 " stroke="#ffffff" stroke-width="2" stroke-opacity="1" stroke-miterlimit="10"/><path stroke-linecap="butt" transform="matrix(1.796053, 0, 0, 1.796053, 1.542432, 1.542428)" fill="none" stroke-linejoin="miter" d="M 33.000186 14.500416 C 33.000186 10.357216 29.642127 6.999157 25.498926 6.999157 C 23.324018 6.999157 16.675322 6.999157 14.500414 6.999157 C 10.357213 6.999157 6.999154 10.357216 6.999154 14.500416 C 6.999154 16.675325 6.999154 23.32402 6.999154 25.498929 C 6.999154 29.64213 10.357213 33.000188 14.500414 33.000188 C 16.675322 33.000188 23.324018 33.000188 25.498926 33.000188 C 29.642127 33.000188 33.000186 29.64213 33.000186 25.498929 C 33.000186 23.32402 33.000186 16.675325 33.000186 14.500416 Z M 33.000186 14.500416 " stroke="#ffffff" stroke-width="2" stroke-opacity="1" stroke-miterlimit="10"/></g></svg>